<mxfile host="app.diagrams.net" modified="2023-04-16T15:40:52.527Z" agent="Mozilla/5.0 (Windows NT 10.0; Win64; x64) AppleWebKit/537.36 (KHTML, like Gecko) Chrome/111.0.0.0 Safari/537.36" version="21.1.8" etag="k9l7sctk-VVi8VDOYDWt" type="github">
  <diagram name="PÃ¡gina-1" id="K9gdoADVN9SYRZ7sTJEq">
    <mxGraphModel>
      <root>
        <mxCell id="0" />
        <mxCell id="1" parent="0" />
      </root>
    </mxGraphModel>
  </diagram>
</mxfile>
